<svg id="Capa_1" fill="#20B2AA" enable-background="new 0 0 512 512" height="100" viewBox="0 0 512 512" width="100" xmlns="http://www.w3.org/2000/svg"><g>
<path d="m437 241c-36.219 0-66.522 25.808-73.491 60h-18.509c-41.355 0-75 33.645-75 75v61c0 24.813-20.187 45-45 45s-45-20.187-45-45v-48.58c17.459-6.192 30-22.865 30-42.42v-26.16c26.562-13.249 51.842-38.023 73.765-72.897 28.087-44.679 46.235-100.002 46.235-140.943 0-33.391-1.841-54.198-31.05-70.636-4.424-20.197-22.445-35.364-43.95-35.364-24.813 0-45 20.187-45 45s20.187 45 45 45c16.309 0 30.618-8.722 38.511-21.745 5.515 6.305 6.489 15.729 6.489 37.745 0 35.139-16.731 85.363-41.633 124.976-27.975 44.501-62.006 70.024-93.367 70.024s-65.392-25.523-93.367-70.024c-24.902-39.613-41.633-89.837-41.633-124.976 0-22.016.974-31.44 6.489-37.745 7.893 13.023 22.202 21.745 38.511 21.745 24.813 0 45-20.187 45-45s-20.187-45-45-45c-21.505 0-39.526 15.167-43.95 35.364-29.213 16.44-31.05 37.253-31.05 70.636 0 40.941 18.148 96.264 46.235 140.943 21.923 34.874 47.203 59.648 73.765 72.897v26.16c0 19.555 12.541 36.228 30 42.42v48.58c0 41.355 33.645 75 75 75s75-33.645 75-75v-61c0-24.813 20.187-45 45-45h18.509c6.968 34.192 37.271 60 73.491 60 41.355 0 75-33.645 75-75s-33.645-75-75-75zm-182-181c-8.271 0-15-6.729-15-15s6.729-15 15-15 15 6.729 15 15-6.729 15-15 15zm-180-30c8.271 0 15 6.729 15 15s-6.729 15-15 15-15-6.729-15-15 6.729-15 15-15zm90 331c-8.271 0-15-6.729-15-15v-16.25c4.987.82 9.991 1.25 15 1.25s10.013-.43 15-1.25v16.25c0 8.271-6.729 15-15 15zm272 0c-24.813 0-45-20.187-45-45s20.187-45 45-45 45 20.187 45 45-20.187 45-45 45z"/><path d="m422 301h30v30h-30z"/></g></svg>